<svg xmlns="http://www.w3.org/2000/svg" width="868.982" height="1207"><path d="M783.857 0q0 124-88 212t-212 88q0-124 88-212t212-88zm-550 200h100q21 0 40 14t26 33l79 194q5-1 16-3 34-6 54-9.5t60-7q40-3.5 65.5-1t61 10q35.5 7.5 56.5 23t42.5 42q21.5 26.5 29 64t5 92q-2.5 54.5-19.5 121.5-1 7-3 19.5t-11 50q-9 37.5-20.5 73t-32.5 81.5q-21 46-46.5 83t-64 70q-38.5 33-82.5 50-13 5-42 5t-65.5-2.5q-36.5-2.5-47.5-2.5-14 0-49.5 3.5t-63 3.5q-27.5 0-43.5-7-57-25-104.5-78.5t-75-111.5q-27.5-58-46.5-112t-26-90l-7-35q-15-63-18-115t4.5-88.5q7.5-36.5 26-64t39.5-43.5q21-16 52-25.5t58.5-13q27.5-3.5 62.5-2t59.5 4.5q24.5 3 55.5 8l-147-192q-12-18-5.5-30t27.5-12z"/></svg>