<svg xmlns="http://www.w3.org/2000/svg" width="1200" height="1000"><path d="M500 0h200q56 0 102.5 20.5t72.5 50q26 29.5 44 59t25 50.5l6 20h150q41 0 70.5 29.5T1200 300v600q0 41-29.5 70.5T1100 1000H100q-41 0-70.5-29.5T0 900V300q0-41 29.5-70.5T100 200h150q2-8 6.5-21.5t24-48q19.5-34.5 45-61t72-48Q444 0 500 0zm400 300v100h100V300zm-300 70q-95 0-162.5 67.5T370 600q0 95 67.5 162.5T600 830q95 0 162.5-67.5T830 600q0-95-67.5-162.5T600 370zm0 127q43 0 73 30t30 73q0 43-30 73t-73 30q-43 0-73-30t-30-73q0-43 30-73t73-30z"/></svg>