<svg xmlns="http://www.w3.org/2000/svg" width="1272" height="988"><path d="M636 0q82 0 160.5 22.5t140 59Q998 118 1053 164t94.5 95q39.5 49 68 95t42.5 82.5q14 36.5 14 57.5t-14 57.5q-14 36.5-43 82.5t-68.5 95q-39.5 49-94.5 95t-116.5 82.5q-61.5 36.5-140 59T636 988q-81 0-159.5-22.5t-140-59Q275 870 220 824t-94.5-95Q86 680 57 634t-43-82.5Q0 515 0 494t14-57.5Q28 400 56.5 354t68-95q39.5-49 94.5-95t116.5-82.5q61.5-36.5 140-59T636 0zm288 265q-15-15-18-12t5 22q25 57 25 119 0 124-88 212t-212 88q-124 0-212-88t-88-212q0-59 23-114 8-19 4.5-22T346 270q-70 69-160 184-13 16-15 40.5t9 42.5q22 36 47 71t70 82q45 47 92.5 81t113 58.5Q568 854 636 854t133.5-24q65.5-24 113-58.5T975 690q45-47 70-81.5t47-70.5q11-18 9-42.5t-14-41.5q-90-117-163-189zM484 367l-35 36q-15 15-19.5 38.5T434 483q37 68 93 116 16 13 38.5 11t36.5-17l35-34q14-15 12.5-33.5T633 492q-44-44-89-117-11-18-28-20t-32 12z"/></svg>