<svg xmlns="http://www.w3.org/2000/svg" width="1200" height="1100"><path d="M25 0h1150q10 0 17.5 7.5T1200 25v1050q0 10-7.5 17.5t-17.5 7.5H25q-10 0-17.5-7.5T0 1075V25Q0 15 7.5 7.5T25 0zm75 100v100h100V100zm775 0H325q-10 0-17.5 7.5T300 125v350q0 10 7.5 17.5T325 500h550q10 0 17.5-7.5T900 475V125q0-10-7.5-17.5T875 100zm125 0v100h100V100zM100 300v100h100V300zm900 0v100h100V300zM100 500v100h100V500zm900 0v100h100V500zM875 600H325q-10 0-17.5 7.5T300 625v350q0 10 7.5 17.5t17.5 7.5h550q10 0 17.5-7.5T900 975V625q0-10-7.5-17.5T875 600zM100 700v100h100V700zm900 0v100h100V700zM100 900v100h100V900zm900 0v100h100V900z"/></svg>