<svg xmlns="http://www.w3.org/2000/svg" width="1046.474" height="1204.667"><path d="M561 0q-39 67-54.5 131T496 245.5q5 50.5 24.5 96.5t47.5 80q28 34 63.5 62.5T700 531q33 18 65 30-4-7-17.5-35T729 486.5q-5-11.5-17-39.5t-17-43q-5-15-13-42t-9.5-44.5q-1.5-17.5-2-42t4-43q4.5-18.5 13.5-39t23-38.5q96 42 165 107.5t105 138q36 72.5 52 156t13 159q-3 75.5-19 149.5-13 55-44 106.5t-68 87q-37 35.5-78.5 64.5t-72.5 45q-31 16-53 22-72 22-127 11-31-6-13-19 6-3 17-7 13-5 32.5-21t41-44q21.5-28 38.5-63.5t21.5-81.5q4.5-46-6.5-94.5t-50-107Q626 705 561 648q10 104-.5 189t-37 140.5q-26.5 55.5-65 93t-84 52q-45.5 14.5-93.5 11t-95-24.5q-80-36-131.5-114T1 824q-2-23 0-49.5T5.5 722Q8 696 19 666t27.5-60q16.5-30 46-64.5T162 473q-8 53-5 102.5t17.5 90q14.5 40.5 34 68.5t44.5 39q25 11 49 2 31-13 38.5-36t-4.5-55q-12-32-29-64.5t-36-75Q252 502 245 469q-15-85 2-161.5T300.5 179Q337 127 386 86.5t93.5-61Q524 5 561 0z"/></svg>