<svg xmlns="http://www.w3.org/2000/svg" width="1099" height="1003.75"><path d="M549 142.75q48-68 109.5-104T780 .25q60-2.5 118.5 20t102.5 64q44 41.5 71 100.5t27 123q0 57-33.5 117.5t-94 124.5q-60.5 64-126.5 127.5t-150 152.5q-84 89-146 174-62-85-145.5-174t-150-152.5Q187 613.75 127 549.75t-93.5-124.5Q0 364.75 0 307.75q0-64 28-123t73-100.5q45-41.5 104-64t119-20q60 2.5 120.5 38.5t104.5 104zm247-23q-33 0-64.5 19t-56.5 46q-25 27-47.5 53.5t-43.5 45.5q-21 19-37.5 19t-36-19q-19.5-19-40-45.5t-43-53.5q-22.5-27-54-46t-65.5-19q-67 0-122.5 55.5T130 307.75q0 23 13.5 51t46 65q32.5 37 57.5 63t76 75l22 22q15 14 44 44t50.5 51q21.5 21 46 44t41 35q16.5 12 23 12t23.5-12q17-12 42.5-36t46-44q20.5-20 52.5-52t44-43q4-4 12-13 43-41 63.5-62t52-55q31.5-34 46-55t26-46q11.5-25 11.5-44 0-79-53-133.5t-120-54.5z"/></svg>