<svg xmlns="http://www.w3.org/2000/svg" width="1154" height="1154"><path d="M577 0q117 0 224 45.5t184.5 123q77.5 77.5 123 184.5t45.5 224q0 117-45.5 224t-123 184.5Q908 1063 801 1108.5T577 1154q-117 0-224-45.5t-184.5-123Q91 908 45.5 801T0 577q0-117 45.5-224t123-184.5Q246 91 353 45.5T577 0zm75 177H502q-10 0-17.5 7.5T477 202v150q0 10 7.5 17.5T502 377h150q10 0 17.5-7.5T677 352V202q0-10-7.5-17.5T652 177zm0 300H402q-10 0-17.5 7.5T377 502v50q0 10 7.5 17.5T402 577h75v200h-75q-10 0-17.5 7.5T377 802v50q0 10 7.5 17.5T402 877h350q10 0 17.5-7.5T777 852v-50q0-10-7.5-17.5T752 777h-75V502q0-10-7.5-17.5T652 477z"/></svg>