<svg xmlns="http://www.w3.org/2000/svg" width="1154" height="1154"><path d="M577 0q117 0 224 45.5t184.5 123q77.5 77.5 123 184.5t45.5 224q0 117-45.5 224t-123 184.5Q908 1063 801 1108.5T577 1154q-117 0-224-45.5t-184.5-123Q91 908 45.5 801T0 577q0-117 45.5-224t123-184.5Q246 91 353 45.5T577 0zm-12 236q-29 0-59 5.5T443 262q-33 15-58 38.5t-41.5 63Q327 403 327 453q0 25 20 25h131q30 5 35-11 6-20 20.5-28t45.5-8q20 0 31.5 10.5T622 470q0 23-7 34t-26 18q-1 0-13.5 4t-19.5 7.5q-7 3.5-20 10.5t-22 17q-9 10-18.5 24T480 620q-6 21-8 46-1 8 5.5 16.5T498 691h173q7 0 22-8t35-28q20-20 37.5-48t29.5-74q12-46 12-100 0-47-17-83t-42.5-57Q722 272 688 258.5t-64-18q-30-4.5-59-4.5zm87 541H502q-10 0-17.5 7.5T477 802v150q0 10 7.5 17.5T502 977h150q10 0 17.5-7.5T677 952V802q0-10-7.5-17.5T652 777z"/></svg>