<svg xmlns="http://www.w3.org/2000/svg" width="1172" height="1172"><path d="M586 0q119 0 227.5 46.5t187 125q78.5 78.5 125 187T1172 586q0 119-46.5 227.5t-125 187q-78.5 78.5-187 125T586 1172q-119 0-227.5-46.5t-187-125Q93 922 46.5 813.5T0 586q0-119 46.5-227.5t125-187q78.5-78.5 187-125T586 0zm0 164q-115 0-212 56.5T220.5 374Q164 471 164 586t56.5 212Q277 895 374 951.5t212 56.5q115 0 212-56.5T951.5 798q56.5-97 56.5-212t-56.5-212Q895 277 798 220.5T586 164zm0 228q80 0 137 57t57 137q0 80-57 137t-137 57q-80 0-137-57t-57-137q0-80 57-137t137-57z"/></svg>