<svg xmlns="http://www.w3.org/2000/svg" width="874" height="1292"><path d="M437 0q21 72 57.5 143.5t76 130q39.5 58.5 83 118t82.5 117q39 57.5 70 116t49.5 126Q874 818 874 887q0 71-25.5 135T780 1133q-43 47-99 82t-118.5 54q-62.5 19-125.5 23-84-5-161.5-34T136 1179.5q-62-49.5-99-125T0 890q0-69 18-136.5T67.5 627Q99 568 137 510.5T218.5 393Q262 333 302 274t76.5-131Q415 71 437 0zM227 585q-23 33-43.5 70.5T143 758q-20 65-17 123 1 37 14.5 69.5t30 52q16.5 19.5 41 37T250 1064q14 7 33 15 21 7 32 1t13-22l6-34q2-10-2.5-22T318 983q-5-4-14-12t-29.5-40.5Q254 898 242 857q-26-89 6-271 2-11-6-11-8-1-15 10z"/></svg>