<svg xmlns="http://www.w3.org/2000/svg" width="1198" height="1198"><path d="M484 0q98 0 187.5 38.5T826 142q65 65 103.5 154.5T968 484q0 141-78 262l300 299q8 8 8 18.5t-8 18.5l-109 108q-7 8-17.5 8t-18.5-8L745 891q-119 77-261 77-98 0-188-38.5t-154.5-103Q77 762 38.5 672T0 484q0-98 38.5-187.5t103-154.5Q206 77 296 38.5T484 0zm-.5 154Q394 154 318 198T198 318.5q-44 76.5-44 166T198 650q44 76 120 120t165.5 44q89.5 0 166-44T770 650q44-76 44-165.5t-44-166Q726 242 649.5 198t-166-44zM402 277h150q10 0 17.5 7.5T577 302v75h75q10 0 17.5 7.5T677 402v150q0 10-7.5 17.5T652 577h-75v75q0 10-7.5 17.5T552 677H402q-10 0-17.5-7.5T377 652v-75h-75q-10 0-17.5-7.5T277 552V402q0-10 7.5-17.5T302 377h75v-75q0-10 7.5-17.5T402 277z"/></svg>