<svg xmlns="http://www.w3.org/2000/svg" width="1100" height="1200"><path d="M850 0h100q21 0 35.5 14.5T1000 50v50h50q21 0 35.5 14.5T1100 150v150H0V150q0-21 14.5-35.5T50 100h50V50q0-21 14.5-35.5T150 0h100q21 0 35.5 14.5T300 50v50h500V50q0-21 14.5-35.5T850 0m250 400v750q0 21-14.5 35.5T1050 1200H50q-21 0-35.5-14.5T0 1150V400ZM100 600v100h100V600Zm200 0v100h100V600Zm200 0v100h100V600Zm200 0v100h100V600Zm200 0v100h100V600ZM100 800v100h100V800Zm200 0v100h100V800Zm200 0v100h100V800Zm200 0v100h100V800Zm200 0v100h100V800Zm-800 200v100h100v-100zm200 0v100h100v-100zm200 0v100h100v-100zm200 0v100h100v-100zm200 0v100h100v-100z"/></svg>