<svg xmlns="http://www.w3.org/2000/svg" width="1192" height="1192"><path d="M596 0q121 0 231.5 47.5t190 127q79.5 79.5 127 190T1192 596q0 121-47.5 231.5t-127 190.5q-79.5 80-190 127T596 1192q-121 0-231.5-47T174 1018Q94 938 47 827.5T0 596q0-121 47-231.5t127-190q80-79.5 190.5-127T596 0zm0 182q-112 0-207.5 55.5t-151 151Q182 484 182 596t55.5 207.5q55.5 95.5 151 151T596 1010q112 0 207.5-55.5t151-151Q1010 708 1010 596t-55.5-207.5q-55.5-95.5-151-151T596 182zM454.5 287q22.5 0 38.5 16t16 38.5q0 22.5-16 39T454.5 397q-22.5 0-38.5-16.5t-16-39q0-22.5 16-38.5t38.5-16zm300 0q22.5 0 38.5 16t16 38.5q0 22.5-16 39T755 397q-14 0-29-10l-55 145q17 23 17 51 0 36-25.5 61.5T601 670q-36 0-61.5-25.5T514 583q0-32 20.5-56.5T586 497l122-126 1-1q-9-14-9-28 0-23 16-39t38.5-16zm-409 196q22.5 0 38.5 16t16 38.5q0 22.5-16 38.5t-38.5 16q-22.5 0-38.5-16t-16-38.5q0-22.5 16-38.5t38.5-16zm509 0q22.5 0 38.5 16t16 38.5q0 22.5-16 38.5t-38.5 16q-22.5 0-38.5-16t-16-38.5q0-22.5 16-38.5t38.5-16z"/></svg>