<svg xmlns="http://www.w3.org/2000/svg" width="1154" height="1154"><path d="M577 0q117 0 224 45.5t184.5 123q77.5 77.5 123 184.5t45.5 224q0 117-45.5 224t-123 184.5Q908 1063 801 1108.5T577 1154q-117 0-224-45.5t-184.5-123Q91 908 45.5 801T0 577q0-117 45.5-224t123-184.5Q246 91 353 45.5T577 0zm104 277H473q-20 0-32 14.5t-8 34.5l58 302q4 20 21.5 34.5T550 677h54q20 0 37.5-14.5T663 628l58-302q4-20-8-34.5T681 277zm-29 500H502q-10 0-17.5 7.5T477 802v150q0 10 7.5 17.5T502 977h150q10 0 17.5-7.5T677 952V802q0-10-7.5-17.5T652 777z"/></svg>