<svg xmlns="http://www.w3.org/2000/svg" width="1200" height="1100"><path d="M25 0h1150q10 0 17.5 7.5T1200 25v1050q0 10-7.5 17.5t-17.5 7.5H25q-10 0-17.5-7.5T0 1075V25Q0 15 7.5 7.5T25 0m75 100v100h100V100Zm775 0H325q-10 0-17.5 7.5T300 125v350q0 10 7.5 17.5T325 500h550q10 0 17.5-7.5T900 475V125q0-10-7.5-17.5T875 100m125 0v100h100V100ZM100 300v100h100V300Zm900 0v100h100V300ZM100 500v100h100V500Zm900 0v100h100V500ZM875 600H325q-10 0-17.5 7.5T300 625v350q0 10 7.5 17.5t17.5 7.5h550q10 0 17.5-7.5T900 975V625q0-10-7.5-17.5T875 600M100 700v100h100V700Zm900 0v100h100V700ZM100 900v100h100V900Zm900 0v100h100V900Z"/></svg>