<svg xmlns="http://www.w3.org/2000/svg" width="1099" height="1003.75"><path d="M549 142.75q48-68 109.5-104T780 .25t118.5 20 102.5 64 71 100.5 27 123q0 57-33.5 117.5t-94 124.5T845 677.25t-150 152.5-146 174q-62-85-145.5-174t-150-152.5T127 549.75t-93.5-124.5T0 307.75q0-64 28-123t73-100.5 104-64 119-20 120.5 38.5 104.5 104m247-23q-33 0-64.5 19t-56.5 46-47.5 53.5-43.5 45.5-37.5 19-36-19-40-45.5-43-53.5-54-46-65.5-19q-67 0-122.5 55.5T130 307.75q0 23 13.5 51t46 65 57.5 63 76 75l22 22q15 14 44 44t50.5 51 46 44 41 35 23 12 23.5-12 42.5-36 46-44 52.5-52 44-43q4-4 12-13 43-41 63.5-62t52-55 46-55 26-46 11.5-44q0-79-53-133.5t-120-54.5"/></svg>