<svg xmlns="http://www.w3.org/2000/svg" width="1199" height="1180.914"><path d="M1165 .72q8-3 21 6.5t13 17.5q-2 178-24.5 323.5t-55.5 245.5q-33 100-87 174.5t-102.5 118.5q-48.5 44-118 68.5t-118.5 33q-49 8.5-120 4.5t-105-9.5q-34-5.5-90-16.5-61-12-78-11-4-1-12.5 0t-34 14.5q-25.5 13.5-52.5 40.5l-153 153q-26 24-37 14.5t-11-43.5q0-64 42-102 8-8 50.5-45t66.5-58q19-17 35-47t13-61q-9-55-10-102.5t7-111q8-63.5 37-130t78-129.5q39-51 80-88t89.5-63.5q48.5-26.5 94.5-45t113.5-36q67.5-17.5 129-31t157.5-37q96-23.5 182-47.5zm-49 92q-8-9-22.5 3t-45.5 50q-38 47-119 103.5t-142 89.5l-62 33q-56 30-102 57t-104 68q-58 41-102.5 80.5t-85.5 91q-41 51.5-64 104.5-24 56-31 86t2 32q9 2 31.5-17.5t55.5-59.5q25-30 94-75.5t125.5-77.5q56.5-32 147.5-81 70-37 118.5-69t102-79.5q53.5-47.5 99-111t86.5-148.5q22-50 24-60t-6-19z"/></svg>