<svg xmlns="http://www.w3.org/2000/svg" width="1199" height="1180.914"><path d="M1165 .72q8-3 21 6.5t13 17.5q-2 178-24.5 323.5t-55.5 245.5-87 174.5-102.5 118.5-118 68.5-118.5 33-120 4.5-105-9.5-90-16.5q-61-12-78-11-4-1-12.5 0t-34 14.5-52.5 40.5l-153 153q-26 24-37 14.5t-11-43.5q0-64 42-102 8-8 50.5-45t66.5-58q19-17 35-47t13-61q-9-55-10-102.5t7-111 37-130 78-129.5q39-51 80-88t89.5-63.5 94.5-45 113.5-36 129-31 157.5-37 182-47.5m-49 92q-8-9-22.5 3t-45.5 50q-38 47-119 103.5t-142 89.5l-62 33q-56 30-102 57t-104 68-102.5 80.5-85.5 91-64 104.5q-24 56-31 86t2 32 31.5-17.5 55.5-59.5q25-30 94-75.5t125.5-77.5 147.5-81q70-37 118.5-69t102-79.5 99-111 86.5-148.5q22-50 24-60t-6-19"/></svg>