<svg xmlns="http://www.w3.org/2000/svg" width="1154" height="1154"><path d="M577 0q117 0 224 45.5t184.5 123q77.5 77.5 123 184.5t45.5 224q0 117-45.5 224t-123 184.5Q908 1063 801 1108.5T577 1154q-117 0-224-45.5t-184.5-123Q91 908 45.5 801T0 577q0-117 45.5-224t123-184.5Q246 91 353 45.5T577 0zm0 150q-116 0-214.5 57T207 362.5Q150 461 150 577t57 214.5Q264 890 362.5 947t214.5 57q116 0 214.5-57T947 791.5q57-98.5 57-214.5t-57-214.5Q890 264 791.5 207T577 150zm182 239l106 106q7 7 7 17.5t-7 17.5L545 851q-8 7-18 7t-18-7L307 648q-8-7-8-17.5t8-17.5l106-106q7-8 17.5-8t17.5 8l79 79 197-197q7-7 17.5-7t17.5 7z"/></svg>