<svg xmlns="http://www.w3.org/2000/svg" width="1200" height="1100"><path d="M600 0q92 0 175 10.5t141.5 27Q975 54 1025 74t81.5 40q31.5 20 53.5 37t31 27l9 10v200q0 21-14.5 33t-34.5 9l-202-34q-20-3-34.5-20T900 338V192q-141-24-300-24t-300 24v146q0 21-14.5 38T251 396L49 430q-20 3-34.5-9T0 388V188q3-4 9.5-10.5t31-26Q65 132 94.5 114T175 74.5Q226 53 284 37t141-26.5Q508 0 600 0zm0 305q56 0 97 9.5t60 23.5q19 14 30 28t12 24l1 10v50l365 303q14 15 24.5 40t10.5 45v212q0 21-14.5 35.5T1150 1100H50q-21 0-35.5-14.5T0 1050V838q0-20 10.5-45T35 753l365-303v-50q0-4 1-10.5t12-23q11-16.5 30-29t60-22.5q41-10 97-10z"/></svg>