<svg xmlns="http://www.w3.org/2000/svg" width="80" height="80">
	<path style="fill:#fff" d="M16 0h48a16 16 0 0 1 16 16v48a16 16 0 0 1-16 16H16A16 16 0 0 1 0 64V16A16 16 0 0 1 16 0z"/>
	<path style="fill:#00272a" d="M56.145 36.73q-.736.736-1.308 1.227-.572.49-1.144.817-.573.327-1.226.49-.655.165-1.554.246-.082 0-.899.082-.736.082-1.88.163-1.145.082-2.697.164-1.472.082-3.025.163L40.45 47.93q-.735 2.942-1.553 5.15-.817 2.206-1.962 4.087-1.144 1.798-2.78 3.433-1.553 1.635-3.76 3.433-1.961 1.635-3.678 2.78Q25 67.957 23.366 68.61q-1.636.736-3.27 1.063-1.553.326-3.352.326-.735 0-1.88-.082-1.144 0-2.37-.163l3.188-5.314q2.125.083 3.27.083 1.226.082 2.125.082 2.942 0 4.904-.573 1.962-.572 3.352-2.207 1.471-1.636 2.534-4.66 1.063-3.024 2.289-7.928l2.207-8.747h-2.044l2.943-3.76 5.231-21.009q-2.37-.245-4.005-.245-2.125 0-4.169.572-2.044.572-3.678 1.717-4.496 3.025-4.496 9.646 0 .899.082 1.798.082.818.245 1.717.163.899.49 2.043.328 1.063.817 2.534l-6.866 3.107q-.654-2.126-.899-3.433-.164-1.309-.164-2.861 0-4.496 1.962-8.502 1.962-4.087 5.395-6.54 3.434-2.37 7.603-3.433 4.169-1.062 10.463-1.062l11.526.082q3.35 0 5.722-.654 2.452-.655 4.986-2.208-.245.9-.409 1.226-.082.327-.408 1.063-1.308.818-2.861 1.962-1.472 1.144-2.29 1.798l-13.078-.327-5.232 21.008z" />
</svg>