<svg xmlns="http://www.w3.org/2000/svg" width="88.515" height="46.976">
	<path style="fill:#00272a" d="M34.176 20.928q-.576.576-1.024.96-.448.384-.896.64t-.96.384q-.512.128-1.216.192-.064 0-.704.064-.576.064-1.472.128t-2.112.128q-1.152.064-2.368.128l-1.536 6.144q-.576 2.304-1.216 4.032-.64 1.728-1.536 3.2-.896 1.408-2.176 2.688-1.216 1.28-2.944 2.688-1.536 1.28-2.88 2.176-1.344.896-2.624 1.408-1.28.576-2.56.832-1.216.256-2.624.256-.576 0-1.472-.064-.896 0-1.856-.128l2.496-4.16q1.664.064 2.56.064.96.064 1.664.064 2.304 0 3.84-.448t2.624-1.728q1.152-1.28 1.984-3.648Q16 34.56 16.96 30.72l1.728-6.848h-1.6l2.304-2.944L23.488 4.48q-1.856-.192-3.136-.192-1.664 0-3.264.448-1.6.448-2.88 1.344-3.52 2.368-3.52 7.552 0 .704.064 1.408.064.64.192 1.344.128.704.384 1.6.256.832.64 1.984L6.592 22.4q-.512-1.664-.704-2.688-.128-1.024-.128-2.24 0-3.52 1.536-6.656 1.536-3.2 4.224-5.12 2.688-1.856 5.952-2.688 3.264-.832 8.192-.832l9.024.064q2.624 0 4.48-.512 1.92-.512 3.904-1.728-.192.704-.32.96-.064.256-.32.832-1.024.64-2.24 1.536-1.152.896-1.792 1.408L28.16 4.48l-4.096 16.448z"/>
	<path style="fill:#000" d="M29.03 26.824c-.617 0-1.232.085-1.848.256a7.203 7.203 0 0 0-1.688.707l.486 1.305c1.1-.575 2.083-.863 2.954-.863.774 0 1.336.212 1.685.636.355.418.533 1.066.533 1.948v.699l-1.771.06c-3.372.11-5.059 1.299-5.059 3.569 0 1.059.293 1.877.877 2.45.59.575 1.404.862 2.44.862.774 0 1.419-.124 1.933-.371.522-.253 1.043-.73 1.563-1.436h.076l.314 1.6h1.172v-7.67c0-1.312-.3-2.265-.904-2.86-.597-.594-1.519-.892-2.764-.892zm2.085 5.897v1.015c0 1.046-.282 1.86-.847 2.442-.56.58-1.332.869-2.317.869-.622 0-1.108-.161-1.457-.483-.343-.32-.514-.789-.514-1.404 0-.786.276-1.363.829-1.732.559-.376 1.467-.589 2.724-.637l1.582-.07zM39.525 26.805c-1.556 0-2.755.511-3.6 1.537-.837 1.025-1.257 2.477-1.257 4.357 0 1.832.413 3.251 1.238 4.256.832.999 2.004 1.498 3.516 1.498 1.061 0 1.94-.196 2.639-.586v-1.506c-.915.404-1.806.606-2.676.606-1.017 0-1.786-.37-2.307-1.11-.515-.738-.771-1.797-.771-3.177 0-2.913 1.06-4.37 3.181-4.37.318 0 .683.052 1.096.155.413.096.793.219 1.143.369l.486-1.445c-.286-.157-.68-.294-1.182-.41a6.668 6.668 0 0 0-1.506-.174zm5.108-3.969a.889.889 0 0 0-.668.277c-.178.178-.268.462-.268.852 0 .383.09.668.268.86a.89.89 0 0 0 .668.277.894.894 0 0 0 .656-.278c.184-.191.275-.478.275-.861s-.09-.666-.275-.85a.896.896 0 0 0-.656-.277zm-.801 4.174v11.236h1.58V27.01h-1.58zm4.228-4.717v15.953h1.583V22.293H48.06zM58.028 38.246l-3.236-11.76h-.083c.116 2.392.174 3.988.174 4.788v6.972h-2.547v-14.99h3.88l3.183 11.463h.055l3.375-11.464h3.88v14.991h-2.657v-7.095c0-.335.003-.722.009-1.159.012-.437.055-1.6.128-3.486h-.082l-3.467 11.74zm17.207 0l-.542-1.558h-.074c-.472.663-.96 1.124-1.462 1.384-.497.253-1.147.38-1.95.38-.987 0-1.765-.315-2.335-.944-.564-.629-.846-1.524-.846-2.686 0-1.217.38-2.113 1.14-2.687.767-.581 1.92-.903 3.458-.964l1.784-.061v-.503c0-1.162-.533-1.743-1.6-1.743-.822 0-1.788.277-2.897.83l-.929-2.112c1.183-.69 2.495-1.035 3.936-1.035 1.38 0 2.437.335 3.172 1.005.736.67 1.104 1.688 1.104 3.055v7.64zm-.827-5.311l-1.086.04c-.815.028-1.422.192-1.82.493-.399.3-.598.759-.598 1.374 0 .882.454 1.323 1.361 1.323.65 0 1.168-.209 1.554-.626.393-.417.589-.97.589-1.66zm10.227-6.369c-1.288 0-2.258.569-2.914 1.704h-.13l-.396-1.489h-2.28v16.51h2.806v-4.645c0-.15-.05-.704-.149-1.662h.149c.686.978 1.633 1.467 2.841 1.467.803 0 1.502-.236 2.096-.707.595-.472 1.05-1.158 1.37-2.06.324-.903.488-1.967.488-3.19 0-1.86-.345-3.311-1.032-4.357-.686-1.046-1.636-1.57-2.85-1.57zm-.9 2.502v.002c.66 0 1.144.283 1.45.85.314.56.471 1.405.471 2.533 0 2.31-.63 3.467-1.886 3.467-.711 0-1.232-.268-1.563-.8-.325-.534-.486-1.417-.486-2.647v-.338c.012-1.094.177-1.877.496-2.348.318-.479.824-.719 1.517-.719z"/>
</svg>