<?xml version="1.0" encoding="UTF-8" standalone="no"?>
<svg
   xmlns:dc="http://purl.org/dc/elements/1.1/"
   xmlns:cc="http://creativecommons.org/ns#"
   xmlns:rdf="http://www.w3.org/1999/02/22-rdf-syntax-ns#"
   xmlns:svg="http://www.w3.org/2000/svg"
   xmlns="http://www.w3.org/2000/svg"
   xmlns:sodipodi="http://sodipodi.sourceforge.net/DTD/sodipodi-0.dtd"
   xmlns:inkscape="http://www.inkscape.org/namespaces/inkscape"
   width="191.3766"
   height="175.69025"
   id="svg2"
   version="1.1"
   inkscape:version="1.0.2 (e86c870879, 2021-01-15, custom)"
   sodipodi:docname="logo_shadow.svg"
   inkscape:export-filename="/home/candid/Documents/workspace/programming/web/osm/facilmap/api/src/resources/img/logo_svg.png"
   inkscape:export-xdpi="90"
   inkscape:export-ydpi="90">
  <defs
     id="defs4">
    <filter
       style="color-interpolation-filters:sRGB;"
       inkscape:label="Drop Shadow 5"
       id="filter3376"
       x="-0.59999999999999998"
       width="2.1499999999999999"
       y="-1.3700000000000001"
       height="3.7400000000000002">
      <feFlood
         flood-opacity="1"
         flood-color="rgb(255,255,255)"
         result="flood"
         id="feFlood3378" />
      <feComposite
         in="flood"
         in2="SourceGraphic"
         operator="in"
         result="composite1"
         id="feComposite3380" />
      <feGaussianBlur
         in="composite"
         stdDeviation="5"
         result="blur"
         id="feGaussianBlur3382" />
      <feOffset
         dx="0"
         dy="0"
         result="offset"
         id="feOffset3384" />
      <feComposite
         in="SourceGraphic"
         in2="offset"
         operator="over"
         result="composite2"
         id="feComposite3386" />
    </filter>
    <filter
       height="3.7400000000000002"
       y="-1.3700000000000001"
       width="2.1499999999999999"
       x="-0.59999999999999998"
       id="filter3388"
       inkscape:label="Drop Shadow 40"
       style="color-interpolation-filters:sRGB;">
      <feFlood
         id="feFlood3390"
         result="flood"
         flood-color="rgb(255,255,255)"
         flood-opacity="1" />
      <feComposite
         id="feComposite3392"
         result="composite1"
         operator="in"
         in2="SourceGraphic"
         in="flood" />
      <feGaussianBlur
         id="feGaussianBlur3394"
         result="blur"
         stdDeviation="40" />
      <feOffset
         id="feOffset3396"
         result="offset"
         dy="0"
         dx="0" />
      <feComposite
         id="feComposite3398"
         result="composite2"
         operator="over"
         in2="offset"
         in="SourceGraphic" />
    </filter>
    <filter
       height="3.7400000000000002"
       y="-1.3700000000000001"
       width="2.1499999999999999"
       x="-0.59999999999999998"
       id="filter3400"
       inkscape:label="Drop Shadow 15"
       style="color-interpolation-filters:sRGB;">
      <feFlood
         id="feFlood3402"
         result="flood"
         flood-color="rgb(255,255,255)"
         flood-opacity="1" />
      <feComposite
         id="feComposite3404"
         result="composite1"
         operator="in"
         in2="SourceGraphic"
         in="flood" />
      <feGaussianBlur
         id="feGaussianBlur3406"
         result="blur"
         stdDeviation="15"
         in="composite" />
      <feOffset
         id="feOffset3408"
         result="offset"
         dy="0"
         dx="0" />
      <feComposite
         id="feComposite3410"
         result="composite2"
         operator="over"
         in2="offset"
         in="SourceGraphic" />
    </filter>
  </defs>
  <sodipodi:namedview
     id="base"
     pagecolor="#ffffff"
     bordercolor="#666666"
     borderopacity="1.0"
     inkscape:pageopacity="0"
     inkscape:pageshadow="2"
     inkscape:zoom="5.6568544"
     inkscape:cx="52.386632"
     inkscape:cy="74.290488"
     inkscape:document-units="px"
     inkscape:current-layer="g3065"
     showgrid="false"
     inkscape:window-width="1920"
     inkscape:window-height="1023"
     inkscape:window-x="0"
     inkscape:window-y="0"
     inkscape:window-maximized="1"
     fit-margin-top="0"
     fit-margin-left="0"
     fit-margin-right="0"
     fit-margin-bottom="0"
     inkscape:snap-global="false"
     inkscape:document-rotation="0"
     inkscape:pagecheckerboard="false" />
  <metadata
     id="metadata7">
    <rdf:RDF>
      <cc:Work
         rdf:about="">
        <dc:format>image/svg+xml</dc:format>
        <dc:type
           rdf:resource="http://purl.org/dc/dcmitype/StillImage" />
        <dc:title></dc:title>
      </cc:Work>
    </rdf:RDF>
  </metadata>
  <g
     inkscape:label="Layer 1"
     inkscape:groupmode="layer"
     id="layer1"
     transform="translate(9.8894926,13.906917)">
    <g
       id="g3422"
       style="filter:url(#filter3388)"
       inkscape:export-xdpi="90"
       inkscape:export-ydpi="90">
      <g
         style="filter:url(#filter3400)"
         id="g3412">
        <g
           id="g3065"
           style="filter:url(#filter3376)">
          <path
             id="path922"
             style="font-style:normal;font-variant:normal;font-weight:500;font-stretch:normal;font-size:64px;line-height:125%;font-family:'URW Chancery L';-inkscape-font-specification:'URW Chancery L Medium';letter-spacing:0px;word-spacing:0px;fill:#00272a;fill-opacity:1;stroke:none"
             d="M 96.478516 64.357422 C 95.155849 65.168089 93.856172 65.744604 92.576172 66.085938 C 91.338839 66.427271 89.845036 66.597656 88.095703 66.597656 L 79.072266 66.533203 C 75.786932 66.533203 73.054906 66.810568 70.878906 67.365234 C 68.702906 67.919901 66.719734 68.815401 64.927734 70.052734 C 63.135734 71.332734 61.727125 73.040495 60.703125 75.173828 C 59.679125 77.264495 59.167969 79.483411 59.167969 81.830078 C 59.167969 82.640745 59.209589 83.385693 59.294922 84.068359 C 59.422922 84.751026 59.658667 85.648479 60 86.757812 L 65.375 84.324219 C 65.119 83.556219 64.906995 82.896464 64.736328 82.341797 C 64.565661 81.744464 64.436896 81.209568 64.351562 80.740234 C 64.266229 80.270901 64.202823 79.823151 64.160156 79.396484 C 64.11749 78.927151 64.095703 78.457615 64.095703 77.988281 C 64.095703 74.532281 65.268568 72.016167 67.615234 70.4375 C 68.468568 69.840167 69.429427 69.392417 70.496094 69.09375 C 71.56276 68.795083 72.650432 68.644531 73.759766 68.644531 C 74.613099 68.644531 75.657198 68.709891 76.894531 68.837891 L 72.798828 85.285156 L 70.496094 88.228516 L 72.095703 88.228516 L 70.367188 95.076172 C 69.727188 97.636172 69.130839 99.70649 68.576172 101.28516 C 68.021505 102.86382 67.359797 104.08026 66.591797 104.93359 C 65.866464 105.78693 64.990797 106.36149 63.966797 106.66016 C 62.942797 106.95882 61.662953 107.10938 60.126953 107.10938 C 59.65762 107.10938 59.102891 107.08759 58.462891 107.04492 C 57.865557 107.04492 57.01363 107.02314 55.904297 106.98047 L 53.408203 111.14062 C 54.048203 111.22596 54.666339 111.26953 55.263672 111.26953 C 55.861005 111.3122 56.352328 111.33398 56.736328 111.33398 C 57.674995 111.33398 58.548708 111.24684 59.359375 111.07617 C 60.212708 110.90551 61.066589 110.63009 61.919922 110.24609 C 62.773255 109.90476 63.646969 109.43522 64.542969 108.83789 C 65.438969 108.24056 66.399828 107.51349 67.423828 106.66016 C 68.575828 105.72149 69.556521 104.82599 70.367188 103.97266 C 71.220521 103.11932 71.945635 102.22382 72.542969 101.28516 C 73.140302 100.30382 73.653411 99.237937 74.080078 98.085938 C 74.506745 96.933937 74.910922 95.588734 75.294922 94.052734 L 76.832031 87.908203 C 77.642698 87.865536 78.431219 87.823917 79.199219 87.78125 C 80.009885 87.738583 80.713214 87.69501 81.310547 87.652344 C 81.90788 87.609677 82.399203 87.568057 82.783203 87.525391 C 83.20987 87.482724 83.445615 87.460938 83.488281 87.460938 C 83.957615 87.418271 84.361792 87.354865 84.703125 87.269531 C 85.044458 87.184198 85.365396 87.055432 85.664062 86.884766 C 85.962729 86.714099 86.259927 86.502094 86.558594 86.246094 C 86.85726 85.990094 87.199984 85.669156 87.583984 85.285156 L 77.470703 85.285156 L 81.568359 68.837891 L 91.806641 69.09375 C 92.233307 68.752417 92.831609 68.28288 93.599609 67.685547 C 94.410276 67.088214 95.157177 66.575104 95.839844 66.148438 C 96.01051 65.764437 96.11749 65.487073 96.160156 65.316406 C 96.24549 65.14574 96.350516 64.826755 96.478516 64.357422 z M 101.4668 86.648438 L 101.4668 102.60352 L 103.04883 102.60352 L 103.04883 86.648438 L 101.4668 86.648438 z M 98.039062 87.193359 C 97.772309 87.193359 97.550883 87.284179 97.373047 87.46875 C 97.195212 87.646485 97.105469 87.930664 97.105469 88.320312 C 97.105469 88.703125 97.195212 88.990233 97.373047 89.181641 C 97.550883 89.366211 97.772309 89.458984 98.039062 89.458984 C 98.293113 89.458984 98.513079 89.366211 98.697266 89.181641 C 98.881452 88.990233 98.972656 88.703125 98.972656 88.320312 C 98.972656 87.937499 98.881452 87.65332 98.697266 87.46875 C 98.513079 87.284179 98.293113 87.193359 98.039062 87.193359 z M 92.933594 91.160156 C 91.377532 91.160156 90.176751 91.673826 89.332031 92.699219 C 88.493664 93.724611 88.074219 95.176754 88.074219 97.056641 C 88.074219 98.888675 88.488788 100.30762 89.314453 101.3125 C 90.14647 102.31055 91.316523 102.80859 92.828125 102.80859 C 93.888787 102.80859 94.770109 102.61426 95.46875 102.22461 L 95.46875 100.7168 C 94.554167 101.12012 93.66114 101.32227 92.791016 101.32227 C 91.774812 101.32227 91.007133 100.95313 90.486328 100.21484 C 89.971875 99.476562 89.712891 98.417971 89.712891 97.037109 C 89.712891 94.124995 90.77516 92.667969 92.896484 92.667969 C 93.214048 92.667969 93.579354 92.719726 93.992188 92.822266 C 94.405019 92.917969 94.785446 93.041016 95.134766 93.191406 L 95.621094 91.746094 C 95.335287 91.588867 94.941204 91.452148 94.439453 91.335938 C 93.937702 91.219725 93.435344 91.160156 92.933594 91.160156 z M 82.435547 91.181641 C 81.819474 91.181641 81.203964 91.266601 80.587891 91.4375 C 79.978168 91.608398 79.416796 91.843749 78.902344 92.144531 L 79.388672 93.447266 C 80.487442 92.873046 81.471673 92.585938 82.341797 92.585938 C 83.116652 92.585938 83.678024 92.798827 84.027344 93.222656 C 84.383015 93.639648 84.560547 94.288084 84.560547 95.169922 L 84.560547 95.867188 L 82.789062 95.929688 C 79.416537 96.039063 77.730469 97.228512 77.730469 99.498047 C 77.730469 100.55762 78.023105 101.37305 78.607422 101.94727 C 79.198091 102.52149 80.009665 102.80859 81.044922 102.80859 C 81.819777 102.80859 82.464062 102.68555 82.978516 102.43945 C 83.49932 102.18652 84.020211 101.70801 84.541016 101.00391 L 84.617188 101.00391 L 84.931641 102.60352 L 86.103516 102.60352 L 86.103516 94.933594 C 86.103516 93.621092 85.80259 92.668946 85.199219 92.074219 C 84.602199 91.479491 83.680396 91.181641 82.435547 91.181641 z M 97.238281 91.365234 L 97.238281 102.60352 L 98.820312 102.60352 L 98.820312 91.365234 L 97.238281 91.365234 z M 84.523438 97.078125 L 84.523438 98.091797 C 84.523438 99.137697 84.241045 99.952148 83.675781 100.5332 C 83.116869 101.11426 82.343822 101.4043 81.359375 101.4043 C 80.73695 101.4043 80.251664 101.24316 79.902344 100.92188 C 79.559375 100.60059 79.388672 100.13281 79.388672 99.517578 C 79.388672 98.731444 79.664236 98.154298 80.216797 97.785156 C 80.775708 97.409181 81.683854 97.196291 82.941406 97.148438 L 84.523438 97.078125 z "
             transform="translate(-9.8894926,-13.906917)" />
          <path
             id="path915"
             style="font-style:normal;font-variant:normal;font-weight:bold;font-stretch:normal;font-size:19.8869px;line-height:125%;font-family:'Open Sans';-inkscape-font-specification:'Open Sans Bold';letter-spacing:-1.23148;word-spacing:0px;fill:#000000;fill-opacity:1;stroke:none"
             d="M 105.74414 87.611328 L 105.74414 102.60352 L 108.29102 102.60352 L 108.29102 95.630859 C 108.29102 94.831054 108.23367 93.234378 108.11719 90.841797 L 108.19922 90.841797 L 111.43555 102.60352 L 114.04688 102.60352 L 117.51367 90.863281 L 117.59766 90.863281 C 117.52409 92.750001 117.48102 93.912109 117.46875 94.349609 C 117.46275 94.78711 117.45898 95.172851 117.45898 95.507812 L 117.45898 102.60352 L 120.11719 102.60352 L 120.11719 87.611328 L 116.23633 87.611328 L 112.86133 99.076172 L 112.80664 99.076172 L 109.625 87.611328 L 105.74414 87.611328 z M 126.32617 90.904297 C 124.88553 90.904297 123.57185 91.249022 122.38867 91.939453 L 123.31836 94.050781 C 124.42797 93.497069 125.39336 93.220703 126.21484 93.220703 C 127.28154 93.220703 127.81445 93.802733 127.81445 94.964844 L 127.81445 95.466797 L 126.03125 95.527344 C 124.4925 95.588867 123.34052 95.911132 122.57422 96.492188 C 121.81405 97.066407 121.43359 97.960936 121.43359 99.177734 C 121.43359 100.33985 121.7153 101.23633 122.2793 101.86523 C 122.84943 102.49414 123.62824 102.80859 124.61523 102.80859 C 125.41832 102.80859 126.06789 102.68262 126.56445 102.42969 C 127.06715 102.16992 127.5553 101.70801 128.02734 101.04492 L 128.09961 101.04492 L 128.64258 102.60352 L 130.60156 102.60352 L 130.60156 94.964844 C 130.60156 93.597655 130.23371 92.578126 129.49805 91.908203 C 128.7624 91.23828 127.70553 90.904297 126.32617 90.904297 z M 138.04297 90.923828 C 136.75558 90.923828 135.78291 91.492186 135.12695 92.626953 L 134.99805 92.626953 L 134.60352 91.138672 L 132.32227 91.138672 L 132.32227 107.64844 L 135.12695 107.64844 L 135.12695 103.00391 C 135.12695 102.85352 135.07856 102.29883 134.98047 101.3418 L 135.12695 101.3418 C 135.81356 102.31934 136.76106 102.80859 137.96875 102.80859 C 138.77184 102.80859 139.4698 102.57324 140.06445 102.10156 C 140.65911 101.62988 141.11677 100.94141 141.43555 100.03906 C 141.76046 99.136719 141.92188 98.075197 141.92188 96.851562 C 141.92187 94.992185 141.57918 93.538087 140.89258 92.492188 C 140.20596 91.446288 139.25679 90.923828 138.04297 90.923828 z M 137.14062 93.425781 C 137.80271 93.425781 138.28723 93.70996 138.59375 94.277344 C 138.9064 94.837891 139.0625 95.682616 139.0625 96.810547 C 139.0625 99.121096 138.43447 100.27539 137.17773 100.27539 C 136.46661 100.27539 135.94628 100.00977 135.61523 99.476562 C 135.29033 98.943358 135.12695 98.060548 135.12695 96.830078 L 135.12695 96.492188 C 135.13921 95.398436 135.30427 94.616211 135.62305 94.144531 C 135.94183 93.666015 136.44789 93.425781 137.14062 93.425781 z M 127.81445 97.291016 L 127.81445 98.234375 C 127.81445 98.924805 127.61891 99.479492 127.22656 99.896484 C 126.84034 100.31348 126.3217 100.52148 125.67188 100.52148 C 124.76458 100.52148 124.31055 100.08106 124.31055 99.199219 C 124.31055 98.583984 124.50973 98.125 124.9082 97.824219 C 125.30668 97.523433 125.91512 97.359371 126.73047 97.332031 L 127.81445 97.291016 z "
             transform="translate(-9.8894926,-13.906917)" />
        </g>
      </g>
    </g>
  </g>
</svg>
