<svg xmlns="http://www.w3.org/2000/svg" width="80" height="80">
	<path style="fill:#00272a" d="M59.642 36.607q-.895.895-1.591 1.492t-1.392.994q-.697.398-1.492.597-.796.2-1.89.3-.1 0-1.094.1-.895.098-2.287.197-1.393.1-3.282.2-1.79.1-3.68.198l-2.387 9.548q-.895 3.58-1.89 6.265-.994 2.685-2.387 4.973-1.392 2.188-3.381 4.177-1.89 1.99-4.575 4.177-2.387 1.99-4.476 3.382-2.088 1.392-4.077 2.188-1.99.895-3.978 1.293-1.89.397-4.078.397-.895 0-2.288-.1-1.392 0-2.884-.198l3.879-6.465q2.586.1 3.978.1 1.492.1 2.586.1 3.58 0 5.967-.697 2.387-.696 4.078-2.685 1.79-1.99 3.083-5.669 1.293-3.68 2.785-9.647l2.685-10.642h-2.486l3.58-4.575 6.365-25.56q-2.884-.298-4.873-.298-2.586 0-5.072.696-2.487.696-4.476 2.09-5.47 3.68-5.47 11.734 0 1.094.1 2.188.1.995.298 2.09.199 1.093.597 2.485.398 1.293.994 3.083l-8.354 3.78q-.796-2.586-1.094-4.177-.199-1.592-.199-3.48 0-5.47 2.387-10.345 2.387-4.972 6.564-7.956 4.177-2.884 9.25-4.177 5.072-1.293 12.73-1.293l14.023.1q4.077 0 6.962-.796 2.983-.796 6.066-2.686-.298 1.094-.497 1.492-.1.398-.497 1.293-1.591.995-3.481 2.387-1.79 1.392-2.785 2.188l-15.913-.398-6.365 25.56z"/>
</svg>