<svg xmlns="http://www.w3.org/2000/svg" width="88.515" height="46.976">
	<path style="fill:#00272a" d="M43.072 0c-1.322.81-2.624 1.387-3.904 1.729-1.237.34-2.731.511-4.48.511l-9.024-.064c-3.285 0-6.015.277-8.191.832a18.372 18.372 0 0 0-5.953 2.687c-1.792 1.28-3.2 2.988-4.223 5.121a14.938 14.938 0 0 0-1.537 6.657c0 .81.043 1.557.129 2.24.128.683.361 1.578.703 2.687l5.377-2.431c-.256-.768-.47-1.43-.64-1.985-.172-.597-.3-1.13-.386-1.6-.085-.469-.148-.918-.191-1.345-.043-.47-.065-.937-.065-1.406 0-3.456 1.173-5.974 3.52-7.553a9.4 9.4 0 0 1 2.88-1.344 12.048 12.048 0 0 1 3.265-.449c.853 0 1.899.065 3.136.193l-4.095 16.448-2.305 2.943h1.6l-1.727 6.85c-.64 2.56-1.238 4.628-1.793 6.207-.555 1.578-1.216 2.795-1.984 3.648-.726.854-1.6 1.43-2.623 1.729-1.024.298-2.304.447-3.84.447-.47 0-1.024-.022-1.664-.065-.598 0-1.452-.021-2.56-.064L0 46.783c.64.086 1.258.13 1.855.13.598.042 1.09.064 1.473.064.939 0 1.813-.086 2.623-.256.854-.171 1.707-.448 2.56-.832.854-.342 1.73-.811 2.626-1.409a34.09 34.09 0 0 0 2.879-2.175c1.152-.939 2.134-1.836 2.945-2.69a15.815 15.815 0 0 0 2.176-2.687 18.47 18.47 0 0 0 1.535-3.2c.427-1.151.833-2.497 1.217-4.033l1.535-6.142c.81-.043 1.601-.087 2.369-.13.81-.042 1.514-.083 2.111-.126a38.709 38.709 0 0 0 1.473-.129c.427-.043.66-.064.703-.064a8.12 8.12 0 0 0 1.217-.192 3.76 3.76 0 0 0 .959-.385c.299-.17.598-.382.896-.638.299-.256.64-.577 1.024-.961H24.064L28.16 4.48l10.24.256c.427-.341 1.023-.81 1.791-1.408a35.829 35.829 0 0 1 2.24-1.535c.171-.384.278-.661.321-.832.085-.17.192-.492.32-.961zm4.989 22.293v15.953h1.582V22.293H48.06zm-3.428.543a.89.89 0 0 0-.668.277c-.178.178-.268.462-.268.852 0 .383.09.667.268.86a.89.89 0 0 0 .668.277.894.894 0 0 0 .656-.278c.184-.19.275-.478.275-.861s-.09-.666-.275-.85a.897.897 0 0 0-.656-.277zm-5.108 3.969c-1.556 0-2.754.51-3.6 1.537-.836 1.025-1.257 2.477-1.257 4.357 0 1.832.413 3.251 1.238 4.256.832 1 2.004 1.498 3.516 1.498 1.06 0 1.94-.196 2.639-.586v-1.506c-.915.404-1.806.606-2.676.606-1.017 0-1.786-.37-2.307-1.11-.515-.738-.771-1.797-.771-3.177 0-2.913 1.06-4.37 3.181-4.37.318 0 .683.052 1.096.155a6.8 6.8 0 0 1 1.143.369l.486-1.445c-.286-.157-.68-.294-1.182-.41a6.667 6.667 0 0 0-1.506-.174zm-10.496.02c-.617 0-1.231.084-1.847.255a7.2 7.2 0 0 0-1.688.707l.486 1.305c1.1-.575 2.083-.863 2.954-.863.774 0 1.336.212 1.685.636.355.418.533 1.066.533 1.948v.699l-1.771.06c-3.372.11-5.059 1.299-5.059 3.569 0 1.059.293 1.878.877 2.45.59.576 1.404.862 2.44.862.774 0 1.42-.124 1.933-.371.522-.253 1.043-.73 1.563-1.436h.076l.314 1.6h1.172v-7.67c0-1.312-.3-2.264-.904-2.86-.597-.593-1.519-.892-2.764-.892zm14.803.185v11.236h1.58V27.01h-1.58zm-12.717 5.71v1.016c0 1.046-.282 1.86-.847 2.442-.56.58-1.332.869-2.317.869-.622 0-1.108-.16-1.457-.483-.343-.32-.514-.789-.514-1.404 0-.786.276-1.363.829-1.732.559-.376 1.467-.589 2.724-.637l1.582-.07z"/>
	<path style="fill:#000" d="M58.028 38.246l-3.236-11.76h-.083c.116 2.392.174 3.988.174 4.788v6.972h-2.547v-14.99h3.88l3.183 11.463h.055l3.375-11.464h3.88v14.991h-2.657v-7.095c0-.335.003-.722.009-1.159.012-.437.055-1.6.128-3.486h-.082l-3.467 11.74zm17.207 0l-.542-1.558h-.074c-.472.663-.96 1.124-1.462 1.384-.497.253-1.147.38-1.95.38-.987 0-1.765-.315-2.335-.944-.564-.629-.846-1.524-.846-2.686 0-1.217.38-2.113 1.14-2.687.767-.581 1.92-.903 3.458-.964l1.784-.061v-.503c0-1.162-.533-1.743-1.6-1.743-.822 0-1.788.277-2.897.83l-.929-2.112c1.183-.69 2.495-1.035 3.936-1.035 1.38 0 2.437.335 3.172 1.005.736.67 1.104 1.688 1.104 3.055v7.64zm-.827-5.311l-1.086.04c-.815.028-1.422.192-1.82.493-.399.3-.598.759-.598 1.374 0 .882.454 1.323 1.361 1.323.65 0 1.168-.209 1.554-.626.393-.417.589-.97.589-1.66zm10.227-6.369c-1.288 0-2.258.569-2.914 1.704h-.13l-.396-1.489h-2.28v16.51h2.806v-4.645c0-.15-.05-.704-.149-1.662h.149c.686.978 1.633 1.467 2.841 1.467.803 0 1.502-.236 2.096-.707.595-.472 1.05-1.158 1.37-2.06.324-.903.488-1.967.488-3.19 0-1.86-.345-3.311-1.032-4.357-.686-1.046-1.636-1.57-2.85-1.57zm-.9 2.502v.002c.66 0 1.144.283 1.45.85.314.56.471 1.405.471 2.533 0 2.31-.63 3.467-1.886 3.467-.711 0-1.232-.268-1.563-.8-.325-.534-.486-1.417-.486-2.647v-.338c.012-1.094.177-1.877.496-2.348.318-.479.824-.719 1.517-.719z"/>
</svg>