<svg xmlns="http://www.w3.org/2000/svg" width="1000.15" height="854.138"><path d="M646.134 166.138q-35 0-59-24t-24-59q0-35 24-58t59-25q35-2 58 25t25 58q2 31-25 59t-58 24zm-438 272q87 0 148 60t60 148q-1 88-60 148t-148 60q-89 0-147-60t-61-148q-3-88 61-148t147-60zm0 354q60 0 103-44t43-102q0-58-43-103t-103-43q-60 2-102 43t-43 103q-1 62 43 102t102 44zm241-417l92 96v258h-82v-207l-135-117q-23-20-23-59 0-33 23-58l117-118q20-23 59-23 35 0 66 23l81 80q62 63 148 63v84q-125 0-211-88l-33-33zm343 63q87 0 148 60t60 148q-1 88-60 148t-148 60q-89 0-147-60t-61-148q-3-88 61-148t147-60zm0 354q60 0 103-44t43-102q0-58-43-103t-103-43q-60 2-102 43t-43 103q-1 62 43 102t102 44z"/></svg>